name C:\Users\tom_v\MusculoskeletalSpecialization_revisited\Results\Case_15\motion.mot
datacolumns 32
datarows 7
range 0.23947958 0.26821713
endheader 
time	pelvis_tilt	pelvis_list	pelvis_rotation	pelvis_tx	pelvis_ty	pelvis_tz	hip_flexion_r	hip_adduction_r	hip_rotation_r	knee_angle_r	ankle_angle_r	subtalar_angle_r	mtp_angle_r	hip_flexion_l	hip_adduction_l	hip_rotation_l	knee_angle_l	ankle_angle_l	subtalar_angle_l	mtp_angle_l	lumbar_extension	lumbar_bending	lumbar_rotation	arm_flex_r	arm_add_r	arm_rot_r	elbow_flex_r	arm_flex_l	arm_add_l	arm_rot_l	elbow_flex_l	
          0.23947958	         -9.72979690	         -0.48840735	          6.82945388	          1.95849384	          1.00196101	         -0.00603680	         28.19992488	         -3.76232454	          0.07287787	        -63.46109634	         -5.18736927	         15.01242236	          1.98329448	         24.33895545	          0.26826772	         -5.83898208	         -4.71366082	         -4.38595767	          4.83503316	          7.12645143	        -14.58184102	         -3.34253982	         -5.93132258	         17.23862583	         -8.93544782	         -2.64867346	          6.14908312	         20.31133425	        -16.44720670	        -11.79812899	          0.76038971	
          0.24426917	        -10.06955422	         -1.48668263	          7.69569135	          1.99750862	          0.99668693	         -0.00482622	         30.51153003	         -2.93035358	         -0.31004925	        -64.28497666	         -3.60110343	         15.40751300	          3.45771565	         22.87313671	         -0.91338781	         -5.37703727	         -4.46855416	         -7.35405428	          5.38294370	          7.44967012	        -13.61902442	         -2.85796571	         -7.30786382	         18.22368156	         -7.57574364	        -11.64091538	          0.36037528	         25.58795023	        -18.00342792	        -13.19345349	          8.43292543	
          0.24905876	        -10.49202974	         -1.70324344	          9.00044866	          2.03651090	          0.99207376	         -0.00475192	         32.77472105	         -3.33578035	         -0.94626691	        -65.03453059	         -2.56214155	         15.60160815	          4.74486687	         21.60776682	         -0.85311784	         -2.49901245	         -6.06023492	         -1.23655651	          4.39790423	          8.37199687	        -12.88188539	         -3.18289977	         -9.32406807	         16.01955398	         -7.38227925	        -12.44702052	          1.18651108	         27.22390761	        -20.38535031	         -8.97667368	         24.75234087	
          0.25384835	        -10.98177366	         -1.20185833	         10.58130710	          2.07535492	          0.98873323	         -0.00535698	         34.93547185	         -4.73240634	         -1.50528224	        -65.61762183	         -1.82645635	         15.64395505	          5.49821894	         20.27163215	          0.17505645	          1.47136015	         -7.30167758	          2.24579557	          1.04079416	          9.34864658	        -12.52070120	         -4.27838117	        -11.68811797	          9.92365585	         -8.49509009	         -5.40731144	         10.50447947	         27.42478371	        -25.26281317	         -0.27927195	         46.15742985	
          0.25863794	        -11.31093138	         -0.78049921	         12.10736698	          2.11413301	          0.98654030	         -0.00624291	         36.82164132	         -6.06010453	         -1.97576919	        -65.89318001	         -1.06433573	         15.44174182	          5.90256515	         18.79176349	          1.03339130	          5.21172527	         -8.54175757	          4.90768847	         -2.13096756	         10.47085972	        -12.56856429	         -5.19062916	        -13.67219680	          0.36005183	        -12.53194000	          3.06270232	         28.11251953	         30.04345475	        -31.52589919	          9.38628787	         66.37120807	
          0.26342753	        -11.59280316	         -0.91898670	         13.22597461	          2.15297508	          0.98476391	         -0.00715062	         38.68484547	         -6.67960187	         -2.33334117	        -65.85274013	         -0.15564316	         14.85664423	          6.14544972	         17.42002801	          1.08626581	          7.94683952	         -9.88278209	          7.40997679	         -4.08830997	         11.72555135	        -12.54505723	         -5.33781423	        -14.85817030	        -10.84665709	        -18.89119318	          7.08872071	         48.57140246	         35.46544070	        -35.90305466	         16.68686762	         83.01739858	
          0.26821713	        -12.02922659	         -1.70152405	         13.80198234	          2.19209337	          0.98297338	         -0.00794372	         40.77467718	         -6.47941684	         -2.58589683	        -65.49827942	          1.04094364	         13.80592988	          4.97210238	         16.39130217	          0.26887953	          9.50769723	        -11.28695173	          9.73808300	         -4.83381148	         12.96984559	        -11.99904344	         -4.66039339	        -15.25796861	        -22.69301582	        -25.16316515	          5.71951545	         65.86274854	         41.25077153	        -36.29316224	         19.39933249	         95.77183266	
